<svg width="115" height="20" viewBox="0 0 115 20" fill="none" xmlns="http://www.w3.org/2000/svg">
<path d="M11.4805 16.1523L0.207031 11.1602V10.0469L11.4805 4.46875V6.20312L2.31641 10.5273L11.4805 14.4297V16.1523ZM102.066 1.86719L95.6914 19H93.7695L100.156 1.86719H102.066ZM103.543 14.4297L112.719 10.5508L103.543 6.20312V4.46875L114.816 10.0469V11.1602L103.543 16.1523V14.4297Z" fill="#D72323"/>
<path d="M21.3125 1.86719H26.1641C28.3047 1.86719 29.9141 2.1875 30.9922 2.82812C32.0703 3.46875 32.6094 4.55859 32.6094 6.09766C32.6094 6.76172 32.4805 7.35938 32.2227 7.89062C31.9727 8.41406 31.6055 8.84766 31.1211 9.19141C30.6367 9.53516 30.0391 9.77344 29.3281 9.90625V10.0234C30.0781 10.1406 30.7422 10.3555 31.3203 10.668C31.8984 10.9805 32.3516 11.418 32.6797 11.9805C33.0078 12.543 33.1719 13.2578 33.1719 14.125C33.1719 15.1797 32.9258 16.0703 32.4336 16.7969C31.9492 17.5234 31.2617 18.0742 30.3711 18.4492C29.4805 18.8164 28.4258 19 27.207 19H21.3125V1.86719ZM23.3047 9.21484H26.5859C28.0781 9.21484 29.1094 8.96875 29.6797 8.47656C30.2578 7.98438 30.5469 7.26562 30.5469 6.32031C30.5469 5.34375 30.2031 4.64062 29.5156 4.21094C28.8359 3.78125 27.75 3.56641 26.2578 3.56641H23.3047V9.21484ZM23.3047 10.8906V17.3008H26.8672C28.3906 17.3008 29.4688 17.0039 30.1016 16.4102C30.7344 15.8086 31.0508 15 31.0508 13.9844C31.0508 13.3359 30.9062 12.7812 30.6172 12.3203C30.3359 11.8594 29.875 11.5078 29.2344 11.2656C28.6016 11.0156 27.7539 10.8906 26.6914 10.8906H23.3047ZM38.4805 6.15625V19H36.5352V6.15625H38.4805ZM37.5312 1.35156C37.8516 1.35156 38.125 1.45703 38.3516 1.66797C38.5859 1.87109 38.7031 2.19141 38.7031 2.62891C38.7031 3.05859 38.5859 3.37891 38.3516 3.58984C38.125 3.80078 37.8516 3.90625 37.5312 3.90625C37.1953 3.90625 36.9141 3.80078 36.6875 3.58984C36.4688 3.37891 36.3594 3.05859 36.3594 2.62891C36.3594 2.19141 36.4688 1.87109 36.6875 1.66797C36.9141 1.45703 37.1953 1.35156 37.5312 1.35156ZM44.5625 19H42.6055V0.765625H44.5625V19ZM50.6094 0.765625V10.2344C50.6094 10.5469 50.5977 10.9297 50.5742 11.3828C50.5508 11.8281 50.5312 12.2227 50.5156 12.5664H50.5977C50.7617 12.3633 51 12.0625 51.3125 11.6641C51.6328 11.2656 51.9023 10.9453 52.1211 10.7031L56.3867 6.15625H58.6719L53.5039 11.6406L59.0469 19H56.7031L52.168 12.918L50.6094 14.3477V19H48.6758V0.765625H50.6094ZM66.0898 5.94531C67.6211 5.94531 68.7578 6.28906 69.5 6.97656C70.2422 7.66406 70.6133 8.76172 70.6133 10.2695V19H69.1953L68.8203 17.1016H68.7266C68.3672 17.5703 67.9922 17.9648 67.6016 18.2852C67.2109 18.5977 66.7578 18.8359 66.2422 19C65.7344 19.1562 65.1094 19.2344 64.3672 19.2344C63.5859 19.2344 62.8906 19.0977 62.2812 18.8242C61.6797 18.5508 61.2031 18.1367 60.8516 17.582C60.5078 17.0273 60.3359 16.3242 60.3359 15.4727C60.3359 14.1914 60.8438 13.207 61.8594 12.5195C62.875 11.832 64.4219 11.457 66.5 11.3945L68.7148 11.3008V10.5156C68.7148 9.40625 68.4766 8.62891 68 8.18359C67.5234 7.73828 66.8516 7.51562 65.9844 7.51562C65.3125 7.51562 64.6719 7.61328 64.0625 7.80859C63.4531 8.00391 62.875 8.23438 62.3281 8.5L61.7305 7.02344C62.3086 6.72656 62.9727 6.47266 63.7227 6.26172C64.4727 6.05078 65.2617 5.94531 66.0898 5.94531ZM68.6914 12.6719L66.7344 12.7539C65.1328 12.8164 64.0039 13.0781 63.3477 13.5391C62.6914 14 62.3633 14.6523 62.3633 15.4961C62.3633 16.2305 62.5859 16.7734 63.0312 17.125C63.4766 17.4766 64.0664 17.6523 64.8008 17.6523C65.9414 17.6523 66.875 17.3359 67.6016 16.7031C68.3281 16.0703 68.6914 15.1211 68.6914 13.8555V12.6719ZM80.7031 5.92188C82.2266 5.92188 83.3789 6.29688 84.1602 7.04688C84.9414 7.78906 85.332 8.98438 85.332 10.6328V19H83.4102V10.7617C83.4102 9.69141 83.1641 8.89062 82.6719 8.35938C82.1875 7.82812 81.4414 7.5625 80.4336 7.5625C79.0117 7.5625 78.0117 7.96484 77.4336 8.76953C76.8555 9.57422 76.5664 10.7422 76.5664 12.2734V19H74.6211V6.15625H76.1914L76.4844 8.00781H76.5898C76.8633 7.55469 77.2109 7.17578 77.6328 6.87109C78.0547 6.55859 78.5273 6.32422 79.0508 6.16797C79.5742 6.00391 80.125 5.92188 80.7031 5.92188Z" fill="white"/>
</svg>
